<svg xmlns="http://www.w3.org/2000/svg" version="1.1" xmlns:xlink="http://www.w3.org/1999/xlink" xmlns:svgjs="http://svgjs.com/svgjs" width="1440" height="560" preserveAspectRatio="none" viewBox="0 0 1440 560"><g mask="url(&quot;#SvgjsMask2135&quot;)" fill="none"><path d="M1199.73 536.68a5.6 5.6 0 1 0-9.76 5.49 5.6 5.6 0 1 0 9.76-5.49zM1185.78 544.52a5.6 5.6 0 1 0-9.76 5.49 5.6 5.6 0 1 0 9.76-5.49zM1171.84 552.36a5.6 5.6 0 1 0-9.77 5.49 5.6 5.6 0 1 0 9.77-5.49zM1157.89 560.2a5.6 5.6 0 1 0-9.77 5.49 5.6 5.6 0 1 0 9.77-5.49zM1219.79 507.05a5.6 5.6 0 1 0-9.77 5.49 5.6 5.6 0 1 0 9.77-5.49zM1205.84 514.89a5.6 5.6 0 1 0-9.76 5.49 5.6 5.6 0 1 0 9.76-5.49zM1191.89 522.73a5.6 5.6 0 1 0-9.76 5.49 5.6 5.6 0 1 0 9.76-5.49zM1177.94 530.57a5.6 5.6 0 1 0-9.76 5.49 5.6 5.6 0 1 0 9.76-5.49zM1239.84 477.42a5.6 5.6 0 1 0-9.76 5.49 5.6 5.6 0 1 0 9.76-5.49zM1225.89 485.26a5.6 5.6 0 1 0-9.76 5.49 5.6 5.6 0 1 0 9.76-5.49zM1211.95 493.1a5.6 5.6 0 1 0-9.77 5.49 5.6 5.6 0 1 0 9.77-5.49zM1198 500.94a5.6 5.6 0 1 0-9.76 5.49 5.6 5.6 0 1 0 9.76-5.49z" stroke="rgba(255, 193, 7, 1)" stroke-width="1" stroke-dasharray="2, 2"></path><rect width="242.88" height="242.88" clip-path="url(&quot;#SvgjsClipPath2136&quot;)" x="162.69" y="-36.41" fill="url(#SvgjsPattern2137)" transform="rotate(207.31, 284.13, 85.03)"></rect><path d="M491.56 222.14a5.6 5.6 0 1 0-10.07 4.88 5.6 5.6 0 1 0 10.07-4.88zM477.17 229.12a5.6 5.6 0 1 0-10.08 4.88 5.6 5.6 0 1 0 10.08-4.88zM462.77 236.09a5.6 5.6 0 1 0-10.08 4.89 5.6 5.6 0 1 0 10.08-4.89zM448.37 243.07a5.6 5.6 0 1 0-10.08 4.88 5.6 5.6 0 1 0 10.08-4.88z" stroke="rgba(220, 53, 69, 1)" stroke-width="1.54" stroke-dasharray="2, 2"></path><path d="M833.27 491.44000000000005 L828.7199999999999 573.01L789.9711526797961 491.2011526797962z" fill="rgba(220, 53, 69, 1)"></path><rect width="324" height="324" clip-path="url(&quot;#SvgjsClipPath2138&quot;)" x="100.93" y="334.94" fill="url(#SvgjsPattern2139)" transform="rotate(97.23, 262.93, 496.94)"></rect><path d="M259.46 320.13L251.51 310.09 259.57 300.13 251.62 290.09 259.67 280.13 251.72 270.09 259.77 260.13M267.46 320.17L259.51 310.13 267.57 300.17 259.62 290.13 267.67 280.17 259.72 270.13 267.77 260.17M275.46 320.21L267.51 310.17 275.57 300.21 267.62 290.17 275.67 280.21 267.72 270.17 275.77 260.21" stroke="rgba(220, 53, 69, 1)" stroke-width="2.36" stroke-dasharray="3, 2"></path><rect width="221.67999999999998" height="221.67999999999998" clip-path="url(&quot;#SvgjsClipPath2140&quot;)" x="1175.31" y="343.91" fill="url(#SvgjsPattern2141)" transform="rotate(218.47, 1286.15, 454.75)"></rect><rect width="372" height="372" clip-path="url(&quot;#SvgjsClipPath2142&quot;)" x="-116.29" y="65.44" fill="url(#SvgjsPattern2143)" transform="rotate(54.6, 69.71, 251.44)"></rect><circle r="60.796663021208964" cx="466.31" cy="387.18" fill="rgba(255, 193, 7, 1)"></circle><rect width="60" height="60" clip-path="url(&quot;#SvgjsClipPath2144&quot;)" x="271.34" y="49.1" fill="url(#SvgjsPattern2145)" transform="rotate(163.12, 301.34, 79.1)"></rect><rect width="117.72" height="117.72" clip-path="url(&quot;#SvgjsClipPath2146&quot;)" x="210.56" y="477.59" fill="url(#SvgjsPattern2147)" transform="rotate(173.6, 269.42, 536.45)"></rect><rect width="382.08" height="382.08" clip-path="url(&quot;#SvgjsClipPath2148&quot;)" x="-14.27" y="-59.22" fill="url(#SvgjsPattern2149)" transform="rotate(352.29, 176.77, 131.82)"></rect></g><defs><mask id="SvgjsMask2135"><rect width="1440" height="560" fill="#ffffff"></rect></mask><pattern x="0" y="0" width="11.04" height="11.04" patternUnits="userSpaceOnUse" id="SvgjsPattern2137"><path d="M0 11.04L5.52 0L11.04 11.04" stroke="rgba(40, 167, 69, 1)" fill="none"></path></pattern><clipPath id="SvgjsClipPath2136"><circle r="60.72" cx="284.13" cy="85.03"></circle></clipPath><pattern x="0" y="0" width="6" height="6" patternUnits="userSpaceOnUse" id="SvgjsPattern2139"><path d="M0 6L3 0L6 6" stroke="rgba(13, 110, 253, 1)" fill="none"></path></pattern><clipPath id="SvgjsClipPath2138"><circle r="81" cx="262.93" cy="496.94"></circle></clipPath><pattern x="0" y="0" width="6.52" height="6.52" patternUnits="userSpaceOnUse" id="SvgjsPattern2141"><path d="M0 6.52L3.26 0L6.52 6.52" stroke="rgba(255, 193, 7, 1)" fill="none"></path></pattern><clipPath id="SvgjsClipPath2140"><circle r="55.419999999999995" cx="1286.15" cy="454.75"></circle></clipPath><pattern x="0" y="0" width="372" height="6" patternUnits="userSpaceOnUse" id="SvgjsPattern2143"><rect width="372" height="3" x="0" y="0" fill="rgba(255, 193, 7, 1)"></rect><rect width="372" height="3" x="0" y="3" fill="rgba(0, 0, 0, 0)"></rect></pattern><clipPath id="SvgjsClipPath2142"><circle r="93" cx="69.71" cy="251.44"></circle></clipPath><pattern x="0" y="0" width="60" height="6" patternUnits="userSpaceOnUse" id="SvgjsPattern2145"><rect width="60" height="3" x="0" y="0" fill="rgba(40, 167, 69, 1)"></rect><rect width="60" height="3" x="0" y="3" fill="rgba(0, 0, 0, 0)"></rect></pattern><clipPath id="SvgjsClipPath2144"><circle r="15" cx="301.34" cy="79.1"></circle></clipPath><pattern x="0" y="0" width="6.54" height="6.54" patternUnits="userSpaceOnUse" id="SvgjsPattern2147"><path d="M0 6.54L3.27 0L6.54 6.54" stroke="rgba(40, 167, 69, 1)" fill="none"></path></pattern><clipPath id="SvgjsClipPath2146"><circle r="29.43" cx="269.42" cy="536.45"></circle></clipPath><pattern x="0" y="0" width="382.08" height="11.94" patternUnits="userSpaceOnUse" id="SvgjsPattern2149"><rect width="382.08" height="5.97" x="0" y="0" fill="rgba(40, 167, 69, 1)"></rect><rect width="382.08" height="5.97" x="0" y="5.97" fill="rgba(0, 0, 0, 0)"></rect></pattern><clipPath id="SvgjsClipPath2148"><circle r="95.52" cx="176.77" cy="131.82"></circle></clipPath></defs></svg>